<svg xmlns="http://www.w3.org/2000/svg" width="1680" height="1040" viewBox="0 0 1680 1040">
<defs>
<linearGradient id="bg" x1="0%" x2="100%" y1="0%" y2="100%">
<stop offset="0%" stop-color="#f7fafc" />
<stop offset="100%" stop-color="#e6eef8" />
</linearGradient>
<filter id="shadow" x="-20%" y="-20%" width="160%" height="160%">
<feDropShadow dx="0" dy="12" stdDeviation="14" flood-color="#97a6ba" flood-opacity="0.18" />
</filter>
</defs>
<rect x="0" y="0" width="1680" height="1040" fill="url(#bg)" />
<rect x="40" y="40" width="1600" height="960" rx="32" fill="#ffffff" filter="url(#shadow)" />
<text x="96" y="110" font-size="34" fill="#10203a" font-family="Segoe UI, Arial, sans-serif" font-weight="700" text-anchor="start">Neo4j Behavior Graph Demo</text>
<text x="96" y="150" font-size="18" fill="#52627a" font-family="Segoe UI, Arial, sans-serif" font-weight="500" text-anchor="start">Dataset: data_user500.csv | Users: 500 | Behaviors: 10948</text>
<circle cx="260" cy="500" r="108" fill="#1c8f6f" />
<circle cx="260" cy="500" r="132" fill="none" stroke="#d7f1ea" stroke-width="24" />
<text x="260" y="494" font-size="28" fill="#ffffff" font-family="Segoe UI, Arial, sans-serif" font-weight="700" text-anchor="middle">user_0197</text>
<text x="260" y="534" font-size="18" fill="#dbfff5" font-family="Segoe UI, Arial, sans-serif" font-weight="500" text-anchor="middle">33 events / 7 sessions</text>
<rect x="500" y="136" width="240" height="88" rx="26" fill="#ffb84d" />
<text x="620" y="176" font-size="22" fill="#17212d" font-family="Segoe UI, Arial, sans-serif" font-weight="700" text-anchor="middle">Bags &amp; Stands</text>
<text x="620" y="204" font-size="16" fill="#2a3545" font-family="Segoe UI, Arial, sans-serif" font-weight="500" text-anchor="middle">share 38% | score 35.8</text>
<path d="M 376 460 C 380 360, 460 190, 500 180" fill="none" stroke="#ffb84d" stroke-width="5" stroke-linecap="round" opacity="0.65" />
<text x="420.0" y="390" font-size="14" fill="#5a6b82" font-family="Segoe UI, Arial, sans-serif" font-weight="700" text-anchor="start">PREFERS</text>
<rect x="810" y="76" width="240" height="88" rx="26" fill="#ff8f70" />
<text x="930" y="116" font-size="22" fill="#17212d" font-family="Segoe UI, Arial, sans-serif" font-weight="700" text-anchor="middle">Chargers &amp; Cables</text>
<text x="930" y="144" font-size="16" fill="#2a3545" font-family="Segoe UI, Arial, sans-serif" font-weight="500" text-anchor="middle">share 19% | score 17.9</text>
<path d="M 376 500 C 380 380, 460 130, 810 120" fill="none" stroke="#ff8f70" stroke-width="5" stroke-linecap="round" opacity="0.65" />
<text x="575.0" y="416" font-size="14" fill="#5a6b82" font-family="Segoe UI, Arial, sans-serif" font-weight="700" text-anchor="start">PREFERS</text>
<rect x="1120" y="136" width="240" height="88" rx="26" fill="#6cb6ff" />
<text x="1240" y="176" font-size="22" fill="#17212d" font-family="Segoe UI, Arial, sans-serif" font-weight="700" text-anchor="middle">Ultrabooks</text>
<text x="1240" y="204" font-size="16" fill="#2a3545" font-family="Segoe UI, Arial, sans-serif" font-weight="500" text-anchor="middle">share 19% | score 17.9</text>
<path d="M 376 540 C 380 400, 460 190, 1120 180" fill="none" stroke="#6cb6ff" stroke-width="5" stroke-linecap="round" opacity="0.65" />
<text x="730.0" y="442" font-size="14" fill="#5a6b82" font-family="Segoe UI, Arial, sans-serif" font-weight="700" text-anchor="start">PREFERS</text>
<circle cx="720" cy="360" r="42" fill="#b73c54" />
<text x="720" y="366" font-size="15" fill="#ffffff" font-family="Segoe UI, Arial, sans-serif" font-weight="700" text-anchor="middle">Pay Order</text>
<path d="M 930 164 C 930 300, 660 330, 678 360" fill="none" stroke="#c7d4e6" stroke-width="3.5" stroke-linecap="round" opacity="0.9" />
<text x="692" y="302" font-size="13" fill="#657991" font-family="Segoe UI, Arial, sans-serif" font-weight="700" text-anchor="start">IN_CATEGORY</text>
<path d="M 368 508 C 450 530, 540 390, 678 360" fill="none" stroke="#b8c7db" stroke-width="3" stroke-linecap="round" opacity="0.95" />
<circle cx="910" cy="320" r="42" fill="#cc5d46" />
<text x="910" y="326" font-size="15" fill="#ffffff" font-family="Segoe UI, Arial, sans-serif" font-weight="700" text-anchor="middle">Checkout</text>
<path d="M 930 164 C 930 260, 850 290, 868 320" fill="none" stroke="#c7d4e6" stroke-width="3.5" stroke-linecap="round" opacity="0.9" />
<text x="882" y="262" font-size="13" fill="#657991" font-family="Segoe UI, Arial, sans-serif" font-weight="700" text-anchor="start">IN_CATEGORY</text>
<path d="M 368 508 C 450 530, 540 350, 868 320" fill="none" stroke="#b8c7db" stroke-width="3" stroke-linecap="round" opacity="0.95" />
<circle cx="1100" cy="360" r="42" fill="#ef8c32" />
<text x="1100" y="366" font-size="15" fill="#ffffff" font-family="Segoe UI, Arial, sans-serif" font-weight="700" text-anchor="middle">Add To Cart</text>
<path d="M 930 164 C 930 300, 1040 330, 1058 360" fill="none" stroke="#c7d4e6" stroke-width="3.5" stroke-linecap="round" opacity="0.9" />
<text x="1072" y="302" font-size="13" fill="#657991" font-family="Segoe UI, Arial, sans-serif" font-weight="700" text-anchor="start">IN_CATEGORY</text>
<path d="M 368 508 C 450 530, 540 390, 1058 360" fill="none" stroke="#b8c7db" stroke-width="3" stroke-linecap="round" opacity="0.95" />
<circle cx="720" cy="560" r="42" fill="#3d74b6" />
<text x="720" y="566" font-size="15" fill="#ffffff" font-family="Segoe UI, Arial, sans-serif" font-weight="700" text-anchor="middle">View Product</text>
<path d="M 930 164 C 930 500, 660 530, 678 560" fill="none" stroke="#c7d4e6" stroke-width="3.5" stroke-linecap="round" opacity="0.9" />
<text x="692" y="502" font-size="13" fill="#657991" font-family="Segoe UI, Arial, sans-serif" font-weight="700" text-anchor="start">IN_CATEGORY</text>
<path d="M 368 508 C 450 530, 540 590, 678 560" fill="none" stroke="#b8c7db" stroke-width="3" stroke-linecap="round" opacity="0.95" />
<circle cx="910" cy="600" r="42" fill="#7f8da6" />
<text x="910" y="606" font-size="15" fill="#ffffff" font-family="Segoe UI, Arial, sans-serif" font-weight="700" text-anchor="middle">Search</text>
<path d="M 930 164 C 930 540, 850 570, 868 600" fill="none" stroke="#c7d4e6" stroke-width="3.5" stroke-linecap="round" opacity="0.9" />
<text x="882" y="542" font-size="13" fill="#657991" font-family="Segoe UI, Arial, sans-serif" font-weight="700" text-anchor="start">IN_CATEGORY</text>
<path d="M 368 508 C 450 530, 540 630, 868 600" fill="none" stroke="#b8c7db" stroke-width="3" stroke-linecap="round" opacity="0.95" />
<circle cx="1100" cy="560" r="42" fill="#b73c54" />
<text x="1100" y="566" font-size="15" fill="#ffffff" font-family="Segoe UI, Arial, sans-serif" font-weight="700" text-anchor="middle">Pay Order</text>
<path d="M 620 224 C 620 500, 1040 530, 1058 560" fill="none" stroke="#c7d4e6" stroke-width="3.5" stroke-linecap="round" opacity="0.9" />
<text x="1072" y="502" font-size="13" fill="#657991" font-family="Segoe UI, Arial, sans-serif" font-weight="700" text-anchor="start">IN_CATEGORY</text>
<path d="M 368 508 C 450 530, 540 590, 1058 560" fill="none" stroke="#b8c7db" stroke-width="3" stroke-linecap="round" opacity="0.95" />
<rect x="1310" y="330" width="260" height="104" rx="22" fill="#f4f8fd" stroke="#d6e0ee" stroke-width="2" />
<text x="1332" y="364" font-size="20" fill="#13243d" font-family="Segoe UI, Arial, sans-serif" font-weight="700" text-anchor="start">Chargers &amp; Cables Product 88</text>
<text x="1332" y="392" font-size="16" fill="#5a6d87" font-family="Segoe UI, Arial, sans-serif" font-weight="500" text-anchor="start">Unknown | $0 | stock 0</text>
<text x="1332" y="416" font-size="15" fill="#4a8cc7" font-family="Segoe UI, Arial, sans-serif" font-weight="700" text-anchor="start">Chargers &amp; Cables</text>
<rect x="1310" y="470" width="260" height="104" rx="22" fill="#f4f8fd" stroke="#d6e0ee" stroke-width="2" />
<text x="1332" y="504" font-size="20" fill="#13243d" font-family="Segoe UI, Arial, sans-serif" font-weight="700" text-anchor="start">Bags &amp; Stands Product 91</text>
<text x="1332" y="532" font-size="16" fill="#5a6d87" font-family="Segoe UI, Arial, sans-serif" font-weight="500" text-anchor="start">Unknown | $0 | stock 0</text>
<text x="1332" y="556" font-size="15" fill="#4a8cc7" font-family="Segoe UI, Arial, sans-serif" font-weight="700" text-anchor="start">Bags &amp; Stands</text>
<path d="M 762 360 C 860 340, 1250 354, 1310 378" fill="none" stroke="#91a7c6" stroke-width="3.5" stroke-linecap="round" opacity="0.85" />
<text x="1021.0" y="345.0" font-size="13" fill="#657991" font-family="Segoe UI, Arial, sans-serif" font-weight="700" text-anchor="start">ON_PRODUCT</text>
<path d="M 952 320 C 1050 300, 1250 354, 1310 378" fill="none" stroke="#91a7c6" stroke-width="3.5" stroke-linecap="round" opacity="0.85" />
<text x="1116.0" y="325.0" font-size="13" fill="#657991" font-family="Segoe UI, Arial, sans-serif" font-weight="700" text-anchor="start">ON_PRODUCT</text>
<path d="M 1142 360 C 1240 340, 1250 354, 1310 378" fill="none" stroke="#91a7c6" stroke-width="3.5" stroke-linecap="round" opacity="0.85" />
<text x="1211.0" y="345.0" font-size="13" fill="#657991" font-family="Segoe UI, Arial, sans-serif" font-weight="700" text-anchor="start">ON_PRODUCT</text>
<path d="M 762 560 C 860 540, 1250 354, 1310 378" fill="none" stroke="#91a7c6" stroke-width="3.5" stroke-linecap="round" opacity="0.85" />
<text x="1021.0" y="445.0" font-size="13" fill="#657991" font-family="Segoe UI, Arial, sans-serif" font-weight="700" text-anchor="start">ON_PRODUCT</text>
<path d="M 1142 560 C 1240 540, 1250 494, 1310 518" fill="none" stroke="#91a7c6" stroke-width="3.5" stroke-linecap="round" opacity="0.85" />
<text x="1211.0" y="515.0" font-size="13" fill="#657991" font-family="Segoe UI, Arial, sans-serif" font-weight="700" text-anchor="start">ON_PRODUCT</text>
<circle cx="120" cy="880" r="18" fill="#1c8f6f" stroke="#d0d8e5" stroke-width="1.5" />
<text x="152" y="886" font-size="18" fill="#465b76" font-family="Segoe UI, Arial, sans-serif" font-weight="600" text-anchor="start">User</text>
<circle cx="300" cy="880" r="18" fill="#ffb84d" stroke="#d0d8e5" stroke-width="1.5" />
<text x="332" y="886" font-size="18" fill="#465b76" font-family="Segoe UI, Arial, sans-serif" font-weight="600" text-anchor="start">Category</text>
<circle cx="480" cy="880" r="18" fill="#3d74b6" stroke="#d0d8e5" stroke-width="1.5" />
<text x="512" y="886" font-size="18" fill="#465b76" font-family="Segoe UI, Arial, sans-serif" font-weight="600" text-anchor="start">Behavior</text>
<circle cx="660" cy="880" r="18" fill="#f4f8fd" stroke="#d0d8e5" stroke-width="1.5" />
<text x="692" y="886" font-size="18" fill="#465b76" font-family="Segoe UI, Arial, sans-serif" font-weight="600" text-anchor="start">Product</text>
<text x="96" y="945" font-size="18" fill="#5f718a" font-family="Segoe UI, Arial, sans-serif" font-weight="500" text-anchor="start">Layout highlights one user, top preferred categories, recent behaviors, and linked products for Phase 5 retrieval.</text>
</svg>